<svg width="61" height="54" viewBox="0 0 61 54" fill="none" xmlns="http://www.w3.org/2000/svg">
<rect x="0.5" y="0.5" width="60" height="53" rx="9.5" stroke="#FF1850"/>
<g clip-path="url(#clip0)">
<path d="M37.954 24.663C38.6096 23.6039 38.9702 22.3887 38.9982 21.1433C39.0263 19.8979 38.7208 18.6677 38.1135 17.5801C37.5062 16.4925 36.6192 15.5871 35.5443 14.9576C34.4693 14.3281 33.2457 13.9975 32 14H25C24.4696 14 23.9609 14.2107 23.5858 14.5858C23.2107 14.9609 23 15.4696 23 16V36C23 36.5304 23.2107 37.0392 23.5858 37.4142C23.9609 37.7893 24.4696 38 25 38H35C36.5934 38.0017 38.1397 37.4592 39.3828 36.4624C40.6259 35.4656 41.4914 34.0742 41.8359 32.5185C42.1805 30.9627 41.9835 29.336 41.2776 27.9075C40.5717 26.479 39.3991 25.3343 37.954 24.663ZM27 18H32C32.7956 18 33.5587 18.3161 34.1213 18.8787C34.6839 19.4413 35 20.2044 35 21C35 21.7957 34.6839 22.5587 34.1213 23.1213C33.5587 23.6839 32.7956 24 32 24H27V18ZM35 34H27V28H35C35.7956 28 36.5587 28.3161 37.1213 28.8787C37.6839 29.4413 38 30.2044 38 31C38 31.7957 37.6839 32.5587 37.1213 33.1213C36.5587 33.6839 35.7956 34 35 34Z" fill="white"/>
</g>
<defs>
<clipPath id="clip0">
<rect width="24" height="24" fill="white" transform="translate(20 14)"/>
</clipPath>
</defs>
</svg>
