<svg width="52" height="52" viewBox="0 0 52 52" fill="none" xmlns="http://www.w3.org/2000/svg">
<path fill-rule="evenodd" clip-rule="evenodd" d="M37.7135 1H14.2838C6.11892 1 1 6.78108 1 14.9622V37.0378C1 45.2189 6.09189 51 14.2838 51H37.7108C45.9027 51 51 45.2189 51 37.0378V14.9622C51 6.78108 45.9027 1 37.7135 1Z" stroke="#FF1850" stroke-width="1.5" stroke-linecap="round" stroke-linejoin="round"/>
<path d="M13.8921 29.2357C12.1057 29.2357 10.6543 27.7843 10.6543 26.0005C10.6543 24.2167 12.1057 22.7627 13.8921 22.7627C15.6786 22.7627 17.13 24.2167 17.13 26.0005C17.13 27.7843 15.6786 29.2357 13.8921 29.2357Z" fill="white"/>
<path d="M25.9986 29.2357C24.2122 29.2357 22.7608 27.7843 22.7608 26.0005C22.7608 24.2167 24.2122 22.7627 25.9986 22.7627C27.7851 22.7627 29.2365 24.2167 29.2365 26.0005C29.2365 27.7843 27.7851 29.2357 25.9986 29.2357Z" fill="white"/>
<path d="M38.1041 29.2357C36.3176 29.2357 34.8662 27.7843 34.8662 26.0005C34.8662 24.2167 36.3176 22.7627 38.1041 22.7627C39.8906 22.7627 41.3419 24.2167 41.3419 26.0005C41.3419 27.7843 39.8906 29.2357 38.1041 29.2357Z" fill="white"/>
</svg>
