<svg width="61" height="54" viewBox="0 0 61 54" fill="none" xmlns="http://www.w3.org/2000/svg">
<rect x="0.5" y="0.5" width="60" height="53" rx="9.5" stroke="white"/>
<path d="M10.644 18.991L16.279 37H18.349L23.179 21.544L27.986 37H30.102L35.76 18.991H33.851L29.113 34.355H29.067L24.283 18.991H22.144L17.383 34.263H17.337L12.622 18.991H10.644Z" fill="white"/>
<path d="M49.8006 32.032C49.8006 29.939 48.5356 28.375 46.5116 27.731V27.708C48.4206 26.834 49.3866 25.454 49.3866 23.568C49.3866 22.303 48.8806 21.176 47.8456 20.233C46.8106 19.267 45.4076 18.784 43.5906 18.784C40.6696 18.784 38.5306 20.44 37.7026 22.924L39.4046 23.683C40.2556 21.59 41.6356 20.555 43.5446 20.555C44.7636 20.555 45.7296 20.877 46.4196 21.498C47.1096 22.119 47.4546 22.878 47.4546 23.729C47.4546 24.626 47.0866 25.408 46.3736 26.029C45.6606 26.65 44.7176 26.972 43.5216 26.972H41.7736V28.72H43.5676C46.3506 28.72 47.8686 30.123 47.8686 32.055C47.8686 32.952 47.5006 33.757 46.7416 34.424C45.9826 35.091 44.9476 35.413 43.5906 35.413C41.4976 35.413 40.0256 34.355 39.1746 32.216L37.5186 33.044C38.4386 35.62 40.5776 37.184 43.5906 37.184C45.4076 37.184 46.9026 36.701 48.0526 35.712C49.2256 34.723 49.8006 33.481 49.8006 32.032Z" fill="#FF1850"/>
</svg>
