<svg width="32" height="34" viewBox="0 0 32 34" fill="none" xmlns="http://www.w3.org/2000/svg">
<path d="M16.8584 0.271973C18.1062 0.271973 19.236 0.964973 19.8599 1.98797C20.1634 2.48297 20.3658 3.09347 20.3152 3.73697C20.2815 4.23197 20.4332 4.72697 20.703 5.18897C21.563 6.59147 23.4684 7.11947 24.9523 6.32747C26.6217 5.37047 28.7295 5.94797 29.6906 7.58147L30.8204 9.52847C31.7984 11.162 31.2588 13.2575 29.5726 14.198C28.1393 15.0395 27.6334 16.904 28.4934 18.323C28.7632 18.7685 29.0667 19.148 29.5389 19.379C30.1291 19.6925 30.5843 20.1875 30.9047 20.6825C31.5286 21.7055 31.478 22.9595 30.871 24.065L29.6906 26.045C29.0667 27.101 27.9032 27.761 26.706 27.761C26.1158 27.761 25.4582 27.596 24.9186 27.266C24.4802 26.9855 23.9743 26.8865 23.4347 26.8865C21.7654 26.8865 20.3658 28.256 20.3152 29.8895C20.3152 31.787 18.7639 33.272 16.8247 33.272H14.5314C12.5754 33.272 11.0241 31.787 11.0241 29.8895C10.9903 28.256 9.59077 26.8865 7.92141 26.8865C7.36495 26.8865 6.85908 26.9855 6.43752 27.266C5.89793 27.596 5.22344 27.761 4.65012 27.761C3.43603 27.761 2.27254 27.101 1.64863 26.045L0.485133 24.065C-0.138772 22.9925 -0.172497 21.7055 0.451408 20.6825C0.721205 20.1875 1.22707 19.6925 1.80039 19.379C2.27254 19.148 2.57606 18.7685 2.86272 18.323C3.70583 16.904 3.19996 15.0395 1.76667 14.198C0.0972999 13.2575 -0.442294 11.162 0.518857 9.52847L1.64863 7.58147C2.62664 5.94797 4.71757 5.37047 6.4038 6.32747C7.87082 7.11947 9.77626 6.59147 10.6362 5.18897C10.906 4.72697 11.0578 4.23197 11.0241 3.73697C10.9903 3.09347 11.1758 2.48297 11.4962 1.98797C12.1201 0.964973 13.2499 0.304973 14.4808 0.271973H16.8584ZM15.6949 12.119C13.0475 12.119 10.906 14.198 10.906 16.7885C10.906 19.379 13.0475 21.4415 15.6949 21.4415C18.3423 21.4415 20.4332 19.379 20.4332 16.7885C20.4332 14.198 18.3423 12.119 15.6949 12.119Z" fill="white"/>
</svg>
