<svg width="37" height="37" viewBox="0 0 37 37" fill="none" xmlns="http://www.w3.org/2000/svg">
<path d="M16.3125 30.5312H1" stroke="white" stroke-width="1.5" stroke-linecap="round" stroke-linejoin="round"/>
<path fill-rule="evenodd" clip-rule="evenodd" d="M36 30.5312C36 33.5516 33.5516 36 30.5312 36C27.5109 36 25.0625 33.5516 25.0625 30.5312C25.0625 27.5087 27.5109 25.0625 30.5312 25.0625C33.5516 25.0625 36 27.5087 36 30.5312Z" stroke="#FF1850" stroke-width="1.5" stroke-linecap="round" stroke-linejoin="round"/>
<path d="M20.6875 6.46875H36" stroke="white" stroke-width="1.5" stroke-linecap="round" stroke-linejoin="round"/>
<path fill-rule="evenodd" clip-rule="evenodd" d="M1 6.46875C1 9.49131 3.44843 11.9375 6.46875 11.9375C9.48907 11.9375 11.9375 9.49131 11.9375 6.46875C11.9375 3.44843 9.48907 1 6.46875 1C3.44843 1 1 3.44843 1 6.46875Z" stroke="#FF1850" stroke-width="1.5" stroke-linecap="round" stroke-linejoin="round"/>
</svg>
