<svg width="88" height="88" viewBox="0 0 88 88" fill="none" xmlns="http://www.w3.org/2000/svg">
<path d="M47.944 7.76258C47.1663 4.16699 42.4361 2.90879 39.4863 5.08783C36.2924 7.44797 37.2702 12.1648 39.9475 14.2698C42.9171 16.6017 47.6655 15.2565 49.3554 11.7575C51.0452 8.25852 48.5776 4.29204 44.8991 3.93287C43.9122 3.83436 43.8929 5.38482 44.8693 5.47819C47.6381 5.75071 49.2506 9.02014 47.7921 11.4697C46.3337 13.9192 42.8358 14.7218 40.7229 12.8705C39.0698 11.4245 38.2161 8.43971 40.0204 6.63026C41.9989 4.65174 45.8602 5.50981 46.4471 8.18973C46.6582 9.15845 48.1604 8.7312 47.9492 7.76782L47.944 7.76258Z" fill="white"/>
<path d="M65.4329 61.1674C64.6984 57.7715 60.231 56.5832 57.445 58.6412C54.4286 60.8702 55.3521 65.3251 57.8806 67.3131C60.6852 69.5154 65.1698 68.2449 66.7658 64.9403C68.3618 61.6358 66.0313 57.8896 62.5572 57.5504C61.6251 57.4574 61.6069 58.9217 62.529 59.0099C65.144 59.2673 66.6669 62.3551 65.2894 64.6685C63.912 66.982 60.6085 67.7399 58.6129 65.9915C57.0517 64.6258 56.2455 61.8069 57.9494 60.098C59.818 58.2294 63.4648 59.0398 64.0191 61.5708C64.2185 62.4857 65.6373 62.0822 65.4378 61.1723L65.4329 61.1674Z" fill="white"/>
<path d="M21.4561 51.3007C20.7216 47.9048 16.2543 46.7165 13.4683 48.7745C10.4518 51.0035 11.3753 55.4584 13.9039 57.4464C16.7085 59.6487 21.1931 58.3782 22.7891 55.0736C24.3851 51.7691 22.0546 48.0229 18.5804 47.6837C17.6483 47.5907 17.6301 49.055 18.5522 49.1432C21.1672 49.4006 22.6901 52.4884 21.3127 54.8018C19.9353 57.1153 16.6317 57.8732 14.6362 56.1248C13.0749 54.7591 12.2687 51.9402 13.9727 50.2313C15.8413 48.3627 19.4881 49.1731 20.0424 51.7041C20.2418 52.619 21.6605 52.2155 21.4611 51.3056L21.4561 51.3007Z" fill="white"/>
<path d="M46.3317 14.7681C46.3317 14.7681 60.8024 38.796 61.541 59.4455" stroke="white" stroke-width="2"/>
</svg>
