<svg width="57" height="60" viewBox="0 0 57 60" fill="none" xmlns="http://www.w3.org/2000/svg">
<path d="M8.71173 38.9661C8.06448 40.9859 10.0628 42.9787 12.1623 42.7416C14.4358 42.4844 15.3061 39.8469 14.5761 38.0235C13.7656 36.0024 11.0086 35.3043 9.15771 36.5641C7.30685 37.8238 7.39616 40.5163 9.12848 41.7568C9.59265 42.0907 10.0487 41.3221 9.58836 40.9938C8.28505 40.0589 8.42178 37.9612 9.85496 37.1587C11.2881 36.3563 13.2648 36.9646 13.7862 38.4986C14.1948 39.6975 13.7614 41.4342 12.3399 41.8173C10.7828 42.2345 9.10296 40.6921 9.58173 39.1846C9.75532 38.64 8.88262 38.42 8.71062 38.962L8.71173 38.9661Z" fill="black"/>
<path d="M29.1303 7.53478C28.277 10.1976 30.9114 12.8248 33.6794 12.5122C36.6767 12.1731 37.8239 8.69605 36.8616 6.29209C35.7931 3.62764 32.1583 2.70735 29.7183 4.3681C27.2782 6.02886 27.3959 9.5785 29.6797 11.2139C30.2917 11.6541 30.8929 10.6408 30.286 10.208C28.5678 8.97555 28.7481 6.20998 30.6375 5.15209C32.5269 4.09419 35.1329 4.89611 35.8202 6.91844C36.3589 8.49903 35.7875 10.7886 33.9135 11.2936C31.8608 11.8437 29.6461 9.81031 30.2773 7.82286C30.5061 7.10484 29.3556 6.8148 29.1288 7.52934L29.1303 7.53478Z" fill="black"/>
<path d="M44.044 42.4529C42.8477 46.1862 46.5412 49.8696 50.422 49.4313C54.6242 48.956 56.2327 44.081 54.8835 40.7106C53.3854 36.975 48.2894 35.6847 44.8684 38.0131C41.4473 40.3415 41.6124 45.3182 44.8144 47.6111C45.6723 48.2283 46.5153 46.8075 45.6644 46.2008C43.2554 44.4729 43.5081 40.5955 46.1571 39.1123C48.8062 37.6291 52.4598 38.7534 53.4235 41.5888C54.1787 43.8048 53.3775 47.0148 50.7503 47.7229C47.8722 48.4941 44.7672 45.6432 45.6521 42.8568C45.973 41.8501 44.3599 41.4434 44.042 42.4452L44.044 42.4529Z" fill="black"/>
<path d="M13.3768 36.6912C13.3768 36.6912 25.6674 22.6821 30.4432 11.0342" stroke="black" stroke-width="2"/>
</svg>
