<svg width="209" height="269" viewBox="0 0 209 269" fill="none" xmlns="http://www.w3.org/2000/svg">
<mask id="mask0" style="mask-type:alpha" maskUnits="userSpaceOnUse" x="0" y="0" width="203" height="267">
<rect x="61.3188" width="146.435" height="236.918" transform="rotate(15 61.3188 0)" fill="white"/>
</mask>
<g mask="url(#mask0)">
<path d="M199.804 132.267L197.456 156.485" stroke="#FFB017" stroke-width="2"/>
<path d="M144.489 197.68L145.039 222.674" stroke="#FFB017" stroke-width="2"/>
<path d="M77.0469 -18.1291L84.4275 4.5541" stroke="#FFB017" stroke-width="2"/>
<path d="M114.623 -9.61365L120.52 14.7425" stroke="#FFB017" stroke-width="2"/>
<path d="M156.581 -1.99423L157.131 22.9997" stroke="#FFB017" stroke-width="2"/>
<path d="M196.279 10.1957L193.931 34.4132" stroke="#FFB017" stroke-width="2"/>
<path d="M-8.81214 2.86425L6.88291 21.5636" stroke="#FFB017" stroke-width="2"/>
<path d="M29.8942 9.09468L43.3292 32.3648" stroke="#FFB017" stroke-width="2"/>
<path d="M69.756 18.7401L78.1026 41.6821" stroke="#FFB017" stroke-width="2"/>
<path d="M105.142 27.7042L112.005 52.3192" stroke="#FFB017" stroke-width="2"/>
<path d="M146.677 38.8331L147.744 61.8952" stroke="#FFB017" stroke-width="2"/>
<path d="M185.124 46.0297L185.674 71.0236" stroke="#FFB017" stroke-width="2"/>
<path d="M-19.0956 37.3786L-2.88287 54.1461" stroke="#FFB017" stroke-width="2"/>
<path d="M18.8344 46.5068L34.5294 65.2062" stroke="#FFB017" stroke-width="2"/>
<path d="M55.0913 54.1513L68.5263 77.4215" stroke="#FFB017" stroke-width="2"/>
<path d="M95.0478 65.3753L102.428 88.0585" stroke="#FFB017" stroke-width="2"/>
<path d="M131.141 75.5641L137.038 99.9203" stroke="#FFB017" stroke-width="2"/>
<path d="M175.03 83.7006L175.58 108.695" stroke="#FFB017" stroke-width="2"/>
<path d="M7.35159 87.4293L23.3055 105.163" stroke="#FFB017" stroke-width="2"/>
<path d="M43.7032 96.6518L59.3983 115.351" stroke="#FFB017" stroke-width="2"/>
<path d="M84.6003 102.434L92.9469 125.376" stroke="#FFB017" stroke-width="2"/>
<path d="M121.047 113.235L126.944 137.591" stroke="#FFB017" stroke-width="2"/>
<path d="M164.419 123.304L164.968 148.298" stroke="#FFB017" stroke-width="2"/>
<path d="M-2.55289 128.257L14.9539 140.195" stroke="#FFB017" stroke-width="2"/>
<path d="M34.9288 135.194L50.8826 152.928" stroke="#FFB017" stroke-width="2"/>
<path d="M73.8939 140.458L82.4993 162.435" stroke="#FFB017" stroke-width="2"/>
<path d="M110.953 150.906L116.85 175.262" stroke="#FFB017" stroke-width="2"/>
<path d="M154.583 160.009L155.133 185.003" stroke="#FFB017" stroke-width="2"/>
<path d="M-15.7341 161.995L5.63641 174.968" stroke="#FFB017" stroke-width="2"/>
<path d="M23.1618 171.382L39.1156 189.115" stroke="#FFB017" stroke-width="2"/>
<path d="M63.1876 178.483L76.6227 201.753" stroke="#FFB017" stroke-width="2"/>
<path d="M101.635 185.679L107.532 210.036" stroke="#FFB017" stroke-width="2"/>
<path d="M180.265 206.748L177.137 230.757" stroke="#FFB017" stroke-width="2"/>
<path d="M14.905 207.992L31.1176 224.76" stroke="#FFB017" stroke-width="2"/>
<path d="M54.2237 213.869L62.8291 235.845" stroke="#FFB017" stroke-width="2"/>
<path d="M96.9833 224.291L98.0507 247.353" stroke="#FFB017" stroke-width="2"/>
<path d="M135.974 235.256L133.626 259.474" stroke="#FFB017" stroke-width="2"/>
<path d="M211.316 255.444L201.241 277.591" stroke="#FFB017" stroke-width="2"/>
<path d="M4.811 245.663L21.0237 262.431" stroke="#FFB017" stroke-width="2"/>
<path d="M45.0957 251.799L52.4763 274.482" stroke="#FFB017" stroke-width="2"/>
<path d="M85.6646 262.669L86.2144 287.663" stroke="#FFB017" stroke-width="2"/>
<path d="M189.71 169.938L187.362 194.156" stroke="#FFB017" stroke-width="2"/>
<path d="M172.894 245.149L164.32 267.698" stroke="#FFB017" stroke-width="2"/>
</g>
</svg>
