<svg width="57" height="60" viewBox="0 0 57 60" fill="none" xmlns="http://www.w3.org/2000/svg">
<path d="M8.31353 38.72C7.66629 40.7398 9.66456 42.7326 11.7641 42.4955C14.0376 42.2383 14.9079 39.6008 14.1779 37.7774C13.3674 35.7563 10.6104 35.0583 8.75952 36.318C6.90866 37.5777 6.99796 40.2702 8.73029 41.5107C9.19445 41.8446 9.65053 41.076 9.19017 40.7477C7.88686 39.8129 8.02358 37.7151 9.45677 36.9127C10.8899 36.1102 12.8666 36.7185 13.388 38.2525C13.7966 39.4514 13.3632 41.1881 11.9417 41.5712C10.3846 41.9884 8.70477 40.446 9.18354 38.9385C9.35713 38.3939 8.48443 38.1739 8.31243 38.7159L8.31353 38.72Z" fill="black"/>
<path d="M28.7321 7.28869C27.8789 9.95149 30.5133 12.5787 33.2812 12.2661C36.2785 11.927 37.4258 8.44996 36.4634 6.046C35.3949 3.38154 31.7602 2.46126 29.3201 4.12201C26.88 5.78276 26.9978 9.33241 29.2816 10.9678C29.8935 11.408 30.4948 10.3947 29.8879 9.96189C28.1696 8.72946 28.3499 5.96389 30.2393 4.90599C32.1288 3.84809 34.7347 4.65002 35.4221 6.67235C35.9607 8.25294 35.3893 10.5425 33.5154 11.0476C31.4626 11.5976 29.2479 9.56422 29.8791 7.57677C30.108 6.85875 28.9574 6.56871 28.7307 7.28324L28.7321 7.28869Z" fill="black"/>
<path d="M43.6459 42.2073C42.4495 45.9406 46.1431 49.624 50.0238 49.1857C54.2261 48.7104 55.8346 43.8354 54.4853 40.465C52.9872 36.7294 47.8913 35.4391 44.4702 37.7675C41.0492 40.0959 41.2142 45.0726 44.4162 47.3655C45.2741 47.9827 46.1171 46.5619 45.2662 45.9552C42.8572 44.2273 43.11 40.3499 45.759 38.8667C48.408 37.3835 52.0616 38.5078 53.0253 41.3431C53.7806 43.5592 52.9794 46.7692 50.3521 47.4773C47.474 48.2485 44.369 45.3976 45.254 42.6112C45.5748 41.6045 43.9617 41.1978 43.6438 42.1996L43.6459 42.2073Z" fill="black"/>
<path d="M12.9786 36.4451C12.9786 36.4451 25.2692 22.436 30.045 10.7881" stroke="black" stroke-width="2"/>
</svg>
