<svg width="77" height="80" viewBox="0 0 77 80" fill="none" xmlns="http://www.w3.org/2000/svg">
<path d="M11.4537 52.4468C10.5851 55.1574 13.2668 57.8318 16.0844 57.5136C19.1355 57.1684 20.3034 53.6289 19.3238 51.1818C18.2361 48.4695 14.5361 47.5326 12.0522 49.2232C9.5683 50.9138 9.68814 54.5272 12.013 56.192C12.6359 56.6401 13.2479 55.6085 12.6301 55.168C10.8811 53.9134 11.0645 51.0982 12.9879 50.0213C14.9113 48.9444 17.564 49.7607 18.2637 51.8194C18.8121 53.4283 18.2304 55.759 16.3228 56.2731C14.2331 56.8331 11.9787 54.7632 12.6212 52.74C12.8542 52.0091 11.683 51.7139 11.4522 52.4412L11.4537 52.4468Z" fill="black"/>
<path d="M38.8559 10.265C37.7107 13.8385 41.2462 17.3643 44.9609 16.9448C48.9832 16.4898 50.5229 11.8234 49.2314 8.59728C47.7975 5.02152 42.9196 3.78648 39.6449 6.01524C36.3703 8.24401 36.5283 13.0077 39.5932 15.2025C40.4144 15.7932 41.2214 14.4333 40.4069 13.8525C38.101 12.1985 38.3429 8.48709 40.8785 7.06737C43.4142 5.64764 46.9115 6.72384 47.8339 9.43786C48.5568 11.559 47.7899 14.6317 45.2751 15.3095C42.5202 16.0476 39.5481 13.3188 40.3951 10.6516C40.7023 9.68801 39.1582 9.29876 38.8539 10.2577L38.8559 10.265Z" fill="black"/>
<path d="M58.8704 57.1256C57.2649 62.1358 62.2217 67.079 67.4297 66.4908C73.0693 65.8529 75.2279 59.3106 73.4172 54.7874C71.4067 49.7741 64.5678 48.0425 59.9767 51.1673C55.3856 54.2921 55.6071 60.9709 59.9042 64.0481C61.0556 64.8763 62.1869 62.9696 61.0449 62.1553C57.812 59.8365 58.1512 54.6329 61.7062 52.6424C65.2613 50.6519 70.1646 52.1608 71.4578 55.9659C72.4714 58.9399 71.3962 63.2478 67.8703 64.1981C64.0079 65.233 59.8409 61.4071 61.0285 57.6676C61.4591 56.3166 59.2943 55.7709 58.8677 57.1153L58.8704 57.1256Z" fill="black"/>
<path d="M17.7143 49.3932C17.7143 49.3932 34.2086 30.5927 40.6177 14.9609" stroke="black" stroke-width="2"/>
</svg>
