<svg width="66" height="69" viewBox="0 0 66 69" fill="none" xmlns="http://www.w3.org/2000/svg">
<path d="M9.85414 45.1067C9.10371 47.4485 11.4205 49.759 13.8548 49.4841C16.4908 49.1859 17.4997 46.128 16.6534 44.0138C15.7137 41.6706 12.5171 40.8612 10.3712 42.3218C8.22531 43.7823 8.32884 46.9041 10.3373 48.3423C10.8755 48.7295 11.4043 47.8383 10.8705 47.4577C9.35945 46.3738 9.51797 43.9416 11.1796 43.0113C12.8413 42.0809 15.1331 42.7861 15.7376 44.5647C16.2113 45.9547 15.7088 47.9683 14.0607 48.4124C12.2554 48.8962 10.3077 47.1079 10.8628 45.3601C11.0641 44.7286 10.0523 44.4735 9.85286 45.1019L9.85414 45.1067Z" fill="white"/>
<path d="M33.5278 8.66415C32.5385 11.7514 35.5929 14.7975 38.8021 14.435C42.2772 14.0419 43.6074 10.0105 42.4916 7.22336C41.2528 4.13415 37.0386 3.06715 34.2095 4.99265C31.3805 6.91816 31.517 11.0337 34.1648 12.9298C34.8743 13.4402 35.5714 12.2653 34.8678 11.7635C32.8757 10.3346 33.0846 7.12816 35.2753 5.90162C37.4659 4.67507 40.4873 5.60484 41.2842 7.94956C41.9088 9.78212 41.2462 12.4367 39.0736 13.0222C36.6936 13.66 34.1258 11.3024 34.8577 8.99816C35.123 8.16567 33.789 7.82939 33.5261 8.65784L33.5278 8.66415Z" fill="white"/>
<path d="M50.819 49.1487C49.432 53.4772 53.7143 57.7478 58.2137 57.2396C63.0858 56.6885 64.9508 51.0364 63.3864 47.1287C61.6495 42.7975 55.7412 41.3015 51.7748 44.0012C47.8084 46.7008 47.9997 52.4708 51.7121 55.1293C52.7068 55.8448 53.6842 54.1976 52.6977 53.4941C49.9046 51.4907 50.1976 46.9952 53.269 45.2755C56.3403 43.5559 60.5764 44.8595 61.6937 48.1468C62.5693 50.7161 61.6404 54.4379 58.5943 55.2588C55.2574 56.153 51.6574 52.8476 52.6834 49.617C53.0555 48.4498 51.1852 47.9783 50.8166 49.1398L50.819 49.1487Z" fill="white"/>
<path d="M15.2629 42.4684C15.2629 42.4684 29.5128 26.226 35.0499 12.7212" stroke="white" stroke-width="2"/>
</svg>
