<svg width="219" height="311" viewBox="0 0 219 311" fill="none" xmlns="http://www.w3.org/2000/svg">
<mask id="mask0" style="mask-type:alpha" maskUnits="userSpaceOnUse" x="0" y="0" width="220" height="311">
<rect x="0.00012207" width="219" height="311" fill="white"/>
</mask>
<g mask="url(#mask0)">
<path d="M46.5001 208.5L84.5001 215.5" stroke="#FF1C63" stroke-width="2"/>
<path d="M-9.49994 213.451L28.5001 210.549" stroke="#FF1C63" stroke-width="2"/>
<path d="M-8.49994 277.5L29.5001 266.5" stroke="#FF1C63" stroke-width="2"/>
<path d="M46.5001 277.5L84.5001 270.5" stroke="#FF1C63" stroke-width="2"/>
<path d="M107.5 272.882L145.5 275.118" stroke="#FF1C63" stroke-width="2"/>
<path d="M-8.49987 18.5L22.5001 36.5" stroke="#FF1C63" stroke-width="2"/>
<path d="M50.5001 24.5L81.5001 44.5" stroke="#FF1C63" stroke-width="2"/>
<path d="M110.5 22.5L141.5 44.5" stroke="#FF1C63" stroke-width="2"/>
<path d="M171 17L200 46" stroke="#FF1C63" stroke-width="2"/>
<path d="M-8.49988 86.5L29.5001 97.5" stroke="#FF1C63" stroke-width="2"/>
<path d="M52.0001 88L83.0001 99" stroke="#FF1C63" stroke-width="2"/>
<path d="M108.5 80.5L139.5 98.5" stroke="#FF1C63" stroke-width="2"/>
<path d="M169.5 78.5L200.5 100.5" stroke="#FF1C63" stroke-width="2"/>
<path d="M-9.49994 149.5L28.5001 156.5" stroke="#FF1C63" stroke-width="2"/>
<path d="M47.5001 145.5L85.5001 156.5" stroke="#FF1C63" stroke-width="2"/>
<path d="M109 149L140 160" stroke="#FF1C63" stroke-width="2"/>
<path d="M169.5 144.5L200.5 164.5" stroke="#FF1C63" stroke-width="2"/>
<path d="M107.5 209.5L145.5 216.5" stroke="#FF1C63" stroke-width="2"/>
<path d="M171 210L202 221" stroke="#FF1C63" stroke-width="2"/>
<path d="M164.5 266.5L202.5 277.5" stroke="#FF1C63" stroke-width="2"/>
</g>
</svg>
