<svg width="85" height="85" viewBox="0 0 85 85" fill="none" xmlns="http://www.w3.org/2000/svg">
<path d="M5.5552 48.2503C2.26604 49.941 2.27502 54.8616 5.15851 57.1591C8.28137 59.6465 12.6073 57.4696 13.9547 54.3221C15.4464 50.8318 12.9046 46.5708 9.06725 45.8403C5.22986 45.1097 2.02024 48.5379 2.6286 52.2034C2.78973 53.1874 4.30032 52.8027 4.13695 51.8304C3.68115 49.0707 6.4364 46.6542 9.19451 47.4331C11.9526 48.212 13.6421 51.3998 12.3941 53.9333C11.4201 55.9148 8.74385 57.5203 6.51733 56.2391C4.08128 54.8327 3.90983 50.8599 6.35946 49.5927C7.24522 49.1356 6.43947 47.788 5.55893 48.2438L5.5552 48.2503Z" fill="white"/>
<path d="M52.8643 17.372C49.7579 18.9688 49.7664 23.6161 52.4897 25.7859C55.439 28.1351 59.5246 26.0792 60.7972 23.1066C62.206 19.8101 59.8054 15.7859 56.1812 15.0959C52.557 14.406 49.5257 17.6437 50.1003 21.1056C50.2525 22.0349 51.6792 21.6716 51.5249 20.7532C51.0944 18.1469 53.6966 15.8647 56.3014 16.6003C58.9063 17.3359 60.5019 20.3466 59.3233 22.7394C58.4034 24.6107 55.8758 26.1271 53.773 24.9171C51.4723 23.5888 51.3104 19.8367 53.6239 18.6399C54.4604 18.2082 53.6995 16.9355 52.8678 17.3659L52.8643 17.372Z" fill="white"/>
<path d="M54.7253 62.6433C51.6189 64.2401 51.6274 68.8873 54.3507 71.0572C57.3001 73.4063 61.3856 71.3504 62.6582 68.3778C64.0671 65.0814 61.6665 61.0571 58.0423 60.3672C54.4181 59.6772 51.3868 62.915 51.9613 66.3768C52.1135 67.3061 53.5402 66.9428 53.3859 66.0245C52.9554 63.4182 55.5576 61.1359 58.1625 61.8715C60.7673 62.6072 62.3629 65.6178 61.1843 68.0106C60.2644 69.882 57.7368 71.3983 55.634 70.1883C53.3333 68.86 53.1714 65.1079 55.4849 63.9111C56.3215 63.4794 55.5605 62.2067 54.7289 62.6372L54.7253 62.6433Z" fill="white"/>
<path d="M12.7776 47.9931C12.7776 47.9931 32.3449 27.6893 52.2045 21.5992" stroke="white" stroke-width="2"/>
</svg>
