<svg width="189" height="288" viewBox="0 0 189 288" fill="none" xmlns="http://www.w3.org/2000/svg">
<mask id="mask0" style="mask-type:alpha" maskUnits="userSpaceOnUse" x="0" y="0" width="194" height="288">
<rect width="194" height="288" fill="white"/>
</mask>
<g mask="url(#mask0)">
<path d="M8.97992 10.2276L37.7157 38.9634" stroke="#FF2727" stroke-width="2"/>
<path d="M66.0025 7.98234L87.5543 39.4121" stroke="#FF2727" stroke-width="2"/>
<path d="M6.73499 69.9443L38.1648 91.4961" stroke="#FF2727" stroke-width="2"/>
<path d="M63.7575 69.4952L92.4933 98.231" stroke="#FF2727" stroke-width="2"/>
<path d="M127.964 67.2499L149.516 98.6797" stroke="#FF2727" stroke-width="2"/>
<path d="M181.395 66.8012L202.048 98.231" stroke="#FF2727" stroke-width="2"/>
<path d="M4.48999 134.15L35.9198 154.804" stroke="#FF2727" stroke-width="2"/>
<path d="M63.3085 131.906L94.7383 153.458" stroke="#FF2727" stroke-width="2"/>
<path d="M123.025 126.966L151.761 155.702" stroke="#FF2727" stroke-width="2"/>
<path d="M186.334 125.62L207.885 157.049" stroke="#FF2727" stroke-width="2"/>
<path d="M6.73499 196.561L38.1648 207.337" stroke="#FF2727" stroke-width="2"/>
<path d="M61.5125 189.377L92.9423 207.337" stroke="#FF2727" stroke-width="2"/>
<path d="M120.78 187.581L152.21 209.133" stroke="#FF2727" stroke-width="2"/>
<path d="M178.701 185.336L207.436 214.072" stroke="#FF2727" stroke-width="2"/>
<path d="M1.79602 252.686L39.5117 263.462" stroke="#FF2727" stroke-width="2"/>
<path d="M61.5125 255.829L92.9423 266.604" stroke="#FF2727" stroke-width="2"/>
<path d="M122.127 250.89L153.557 271.544" stroke="#FF2727" stroke-width="2"/>
<path d="M177.354 251.339L208.784 272.891" stroke="#FF2727" stroke-width="2"/>
<path d="M125.719 5.73723L146.373 37.167" stroke="#FF2727" stroke-width="2"/>
<path d="M187.681 5.73758L205.641 39.8613" stroke="#FF2727" stroke-width="2"/>
</g>
</svg>
